<svg xmlns="http://www.w3.org/2000/svg" width="17.363" height="21.329" viewBox="0 0 17.363 21.329">
  <g id="Group_862" data-name="Group 862" transform="translate(-1717.324 -558.692)">
    <g id="delete-button" transform="translate(1671.469 558.992)">
      <g id="Group_861" data-name="Group 861" transform="translate(46.155)">
        <path id="Path_304" data-name="Path 304" d="M60.549,2.483H57.323a2.805,2.805,0,0,0-5.573,0H48.523a2.371,2.371,0,0,0-2.368,2.368v.122a2.37,2.37,0,0,0,1.5,2.2V18.361a2.371,2.371,0,0,0,2.368,2.368h9.033a2.371,2.371,0,0,0,2.368-2.368V7.173a2.371,2.371,0,0,0,1.5-2.2V4.852A2.371,2.371,0,0,0,60.549,2.483Zm-6.013-1.36a1.686,1.686,0,0,1,1.652,1.36h-3.3A1.686,1.686,0,0,1,54.536,1.123ZM60.3,18.361a1.247,1.247,0,0,1-1.245,1.245H50.02a1.247,1.247,0,0,1-1.245-1.245V7.341H60.3Zm1.5-13.387a1.247,1.247,0,0,1-1.245,1.245H48.523a1.247,1.247,0,0,1-1.245-1.245V4.852a1.247,1.247,0,0,1,1.245-1.245H60.549a1.247,1.247,0,0,1,1.245,1.245v.122Z" transform="translate(-46.155)" fill="#989898" stroke="#989898" stroke-width="0.6"/>
        <path id="Path_305" data-name="Path 305" d="M158.637,257.017a.562.562,0,0,0,.562-.561v-6.323a.562.562,0,1,0-1.123,0v6.323A.561.561,0,0,0,158.637,257.017Z" transform="translate(-153.266 -238.848)" fill="#989898" stroke="#989898" stroke-width="0.6"/>
        <path id="Path_306" data-name="Path 306" d="M228.707,257.017a.562.562,0,0,0,.562-.561v-6.323a.562.562,0,1,0-1.123,0v6.323A.562.562,0,0,0,228.707,257.017Z" transform="translate(-220.325 -238.848)" fill="#989898" stroke="#989898" stroke-width="0.6"/>
        <path id="Path_307" data-name="Path 307" d="M298.776,257.017a.562.562,0,0,0,.561-.561v-6.323a.562.562,0,1,0-1.123,0v6.323A.562.562,0,0,0,298.776,257.017Z" transform="translate(-287.384 -238.848)" fill="#989898" stroke="#989898" stroke-width="0.6"/>
      </g>
    </g>
  </g>
</svg>
