<svg xmlns="http://www.w3.org/2000/svg" width="19.207" height="19.209" viewBox="0 0 19.207 19.209">
    <defs>
        <style>
            .cls-1{fill:#989898;stroke:#989898;stroke-width:.3px}
        </style>
    </defs>
    <g id="Group_710" data-name="Group 710" transform="translate(.155 .333)">
        <path id="Path_262" d="M534.473 2.088a2.872 2.872 0 0 0-4.061 0l-11.385 11.385a.638.638 0 0 0-.164.281l-1.5 5.405a.638.638 0 0 0 .785.785l5.405-1.5a.639.639 0 0 0 .281-.164L535.222 6.9a2.875 2.875 0 0 0 0-4.061zm-14.056 11.8l9.318-9.318 3.005 3.005-9.318 9.318zm-.6 1.2l2.4 2.4-3.321.92zM534.32 6l-.677.677-3.005-3.005.677-.677a1.6 1.6 0 0 1 2.256 0l.749.749a1.6 1.6 0 0 1 0 2.256zm0 0" class="cls-1" data-name="Path 262" transform="translate(-517.342 -1.247)"/>
    </g>
</svg>
